<svg width="32" height="32" viewBox="0 0 32 32" fill="none" xmlns="http://www.w3.org/2000/svg">
<g opacity="0.2">
<path fill-rule="evenodd" clip-rule="evenodd" d="M2 2H30V30H2V2ZM0 0H2H30H32V2V30V32H30H2H0V30V2V0ZM8 16C8 11.582 11.582 8 16 8C20.418 8 24 11.582 24 16C24 20.418 20.418 24 16 24C11.582 24 8 20.418 8 16ZM16.6667 16.6667V18.7047C17.2427 18.7273 17.81 18.7727 18.3587 18.8527C18.5213 18.16 18.6233 17.4287 18.6627 16.6667H16.6667ZM16.6667 22.45C17.1987 21.8107 17.6387 21.0327 17.9713 20.146C17.546 20.0907 17.1107 20.0553 16.6667 20.0367V22.45ZM16.6667 13.3233V15.3333H18.6627C18.6247 14.5813 18.524 13.8587 18.3653 13.174C17.814 13.2547 17.2453 13.3007 16.6667 13.3233ZM16.6667 9.55V11.9907C17.114 11.972 17.5527 11.9367 17.9807 11.8807C17.6473 10.9833 17.204 10.196 16.6667 9.55ZM20.662 11.2433C20.038 10.6313 19.2933 10.1433 18.4687 9.81267C18.7993 10.3747 19.0867 10.9867 19.316 11.648C19.788 11.538 20.234 11.3993 20.662 11.2433ZM13.3373 16.6667C13.376 17.4287 13.4787 18.16 13.6413 18.8527C14.1907 18.7727 14.7567 18.7273 15.3333 18.7047V16.6667H13.3373ZM15.3333 22.45V20.0367C14.8893 20.0553 14.454 20.0907 14.0287 20.146C14.3613 21.0327 14.8013 21.8107 15.3333 22.45ZM13.6347 13.174C13.4753 13.8587 13.3753 14.5813 13.3373 15.3333H15.3333V13.3233C14.7547 13.3007 14.186 13.2547 13.6347 13.174ZM15.3333 9.55C14.7967 10.196 14.3533 10.9833 14.02 11.8807C14.4473 11.9367 14.886 11.972 15.3333 11.9907V9.55ZM11.338 11.2427C11.7653 11.3987 12.2113 11.5373 12.6833 11.6473C12.9133 10.9867 13.2007 10.3747 13.5313 9.812C12.7067 10.1427 11.9627 10.6307 11.338 11.2427ZM11.9893 15.3333C12.028 14.4993 12.1413 13.6933 12.3173 12.926C11.656 12.768 11.032 12.562 10.4453 12.3213C9.86 13.202 9.47733 14.228 9.36733 15.3333H11.9893ZM10.4587 19.7007C11.0433 19.462 11.6647 19.258 12.3233 19.1007C12.144 18.3253 12.0287 17.51 11.99 16.6667H9.36733C9.478 17.7813 9.86533 18.8153 10.4587 19.7007ZM13.53 22.1867C13.204 21.6327 12.92 21.0293 12.692 20.3787C12.2253 20.4867 11.7833 20.624 11.3593 20.7767C11.9793 21.3793 12.7147 21.86 13.53 22.1867ZM20.6407 20.7767C20.216 20.6233 19.7747 20.4873 19.308 20.3787C19.0793 21.0293 18.7953 21.6327 18.4693 22.1873C19.2847 21.86 20.02 21.3787 20.6407 20.7767ZM20.0107 16.6667C19.9713 17.51 19.8567 18.3253 19.6767 19.1007C20.3347 19.258 20.9567 19.462 21.5413 19.7007C22.1347 18.8153 22.522 17.7813 22.6333 16.6667H20.0107ZM19.6827 12.926C19.858 13.6933 19.972 14.4993 20.0107 15.3333H22.6327C22.5227 14.228 22.14 13.202 21.5553 12.3213C20.9687 12.562 20.344 12.768 19.6827 12.926Z" fill="black"/>
</g>
</svg>
