<svg width="32" height="32" viewBox="0 0 32 32" fill="none" xmlns="http://www.w3.org/2000/svg">
<g opacity="0.2">
<path fill-rule="evenodd" clip-rule="evenodd" d="M30 2H2V30H30V2ZM2 0H0V2V30V32H2H30H32V30V2V0H30H2ZM25.3333 18.6476H23.6845C23.6723 18.6376 23.6611 18.6262 23.6513 18.6136C23.6423 18.6015 23.637 18.5868 23.6361 18.5715V15.1218H21.9521V18.6286H20.2616V13.3333H25.3333V18.6476ZM10.0514 13.3484V15.0877H8.34853V13.3544H6.66268V18.6246H8.36939V16.8772H9.97844C9.99303 16.8785 10.0069 16.8845 10.0183 16.8942C10.0363 16.9116 10.0528 16.9308 10.0676 16.9513V18.6356H11.7269V13.3484H10.0514ZM13.4546 15.0887V13.3494H18.5368C18.5416 13.6655 18.541 13.9871 18.5404 14.3138C18.5399 14.569 18.5395 14.8273 18.5415 15.0887H13.4546ZM18.5245 16.8842H13.4631V18.6316C14.9063 18.6917 18.1405 18.6697 18.5245 18.6005V16.8842Z" fill="black"/>
</g>
</svg>
