<svg width="32" height="32" viewBox="0 0 32 32" fill="none" xmlns="http://www.w3.org/2000/svg">
<g opacity="0.2">
<path fill-rule="evenodd" clip-rule="evenodd" d="M2 2H30V30H2V2ZM0 0H2H30H32V2V30V32H30H2H0V30V2V0ZM19.2333 9.48867C18.3893 9.45 18.136 9.442 16 9.442C13.864 9.442 13.6113 9.45 12.7673 9.488C10.5973 9.58667 9.58733 10.616 9.488 12.7673C9.45 13.6113 9.44133 13.864 9.44133 16C9.44133 18.1367 9.44933 18.3893 9.488 19.2327C9.58667 21.38 10.594 22.4133 12.7673 22.5127C13.6107 22.5513 13.864 22.5593 16 22.5593C18.1373 22.5593 18.3893 22.5513 19.2333 22.5127C21.4033 22.414 22.4133 21.3833 22.5127 19.2333C22.5507 18.39 22.5587 18.1373 22.5587 16.0007C22.5587 13.8647 22.5513 13.6113 22.5127 12.768C22.414 10.616 21.4013 9.58733 19.2333 9.48867ZM12.702 8.048C13.5553 8.00933 13.8273 8 16 8C18.1727 8 18.4453 8.00933 19.2993 8.04867C22.2073 8.182 23.8213 9.79933 23.952 12.702C23.9907 13.5553 24 13.8273 24 16C24 18.1727 23.9907 18.4453 23.9513 19.2987C23.82 22.2067 22.2013 23.8187 19.2987 23.952C18.4453 23.9907 18.1727 24 16 24C13.8273 24 13.5553 23.9907 12.7013 23.952C9.79333 23.8187 8.18133 22.204 8.048 19.2987C8.00933 18.4453 8 18.1727 8 16C8 13.8273 8.00933 13.5553 8.04867 12.7013C8.182 9.79333 9.79667 8.18133 12.702 8.048ZM11.892 16C11.892 13.7313 13.7313 11.892 16 11.892C18.2687 11.892 20.108 13.7313 20.108 16C20.108 18.2693 18.2687 20.1087 16 20.1087C13.7313 20.1087 11.892 18.2687 11.892 16ZM13.3333 16C13.3333 17.4733 14.5273 18.6667 16 18.6667C17.4727 18.6667 18.6667 17.4733 18.6667 16C18.6667 14.5273 17.4727 13.3333 16 13.3333C14.5273 13.3333 13.3333 14.5273 13.3333 16ZM19.31 11.73C19.31 11.2 19.74 10.77 20.2707 10.77C20.8007 10.77 21.23 11.2 21.23 11.73C21.23 12.26 20.8007 12.69 20.2707 12.69C19.74 12.69 19.31 12.26 19.31 11.73Z" fill="black"/>
</g>
</svg>
