<?xml version="1.0" standalone="no"?>
<!DOCTYPE svg PUBLIC "-//W3C//DTD SVG 20010904//EN"
 "http://www.w3.org/TR/2001/REC-SVG-20010904/DTD/svg10.dtd">
<svg version="1.0" xmlns="http://www.w3.org/2000/svg"
 width="298.000000pt" height="298.000000pt" viewBox="0 0 298.000000 298.000000"
 preserveAspectRatio="xMidYMid meet">
<metadata>
Created by potrace 1.14, written by Peter Selinger 2001-2017
</metadata>
<g transform="translate(0.000000,298.000000) scale(0.100000,-0.100000)"
fill="#000000" stroke="none">
<path d="M0 1485 l0 -1485 1490 0 1490 0 0 1485 0 1485 -1490 0 -1490 0 0
-1485z m2480 655 l0 -330 -432 1 -433 0 -260 305 c-143 168 -268 316 -278 330
l-19 24 711 0 711 0 0 -330z m-1773 -52 c109 -128 206 -242 216 -255 l18 -23
-220 0 -221 0 0 255 c0 140 2 255 4 255 3 0 94 -104 203 -232z m1008 -1180
c184 -215 335 -395 335 -400 0 -4 -348 -7 -772 -6 l-773 3 -3 385 c-1 212 0
391 3 397 3 10 100 13 440 13 l435 0 335 -392z m761 379 c2 -7 3 -118 2 -246
l-3 -234 -195 229 c-107 126 -201 237 -209 247 -13 16 -2 17 193 17 158 0 208
-3 212 -13z"/>
</g>
</svg>
