<?xml version="1.0" standalone="no"?>
<!DOCTYPE svg PUBLIC "-//W3C//DTD SVG 20010904//EN"
 "http://www.w3.org/TR/2001/REC-SVG-20010904/DTD/svg10.dtd">
<svg version="1.0" xmlns="http://www.w3.org/2000/svg"
 width="920.000000pt" height="920.000000pt" viewBox="0 0 920.000000 920.000000"
 preserveAspectRatio="xMidYMid meet">
<metadata>
Created by potrace 1.14, written by Peter Selinger 2001-2017
</metadata>
<g transform="translate(0.000000,920.000000) scale(0.100000,-0.100000)"
fill="#000000" stroke="none">
<path d="M30 4600 l0 -4600 4575 0 4575 0 0 4600 0 4600 -4575 0 -4575 0 0
-4600z m5330 1160 l0 -760 645 0 645 0 0 760 0 760 560 0 560 0 0 -2055 0
-2055 -560 0 -560 0 0 840 0 840 -645 0 -645 0 0 -840 0 -840 -555 0 -555 0 0
2055 0 2055 555 0 555 0 0 -760z m-2815 -201 c301 -43 542 -164 687 -343 89
-111 155 -273 190 -466 10 -60 13 -304 13 -1205 l0 -1130 -232 -3 c-214 -2
-233 -1 -241 15 -5 10 -35 105 -67 212 -33 106 -65 196 -73 198 -7 3 -29 -14
-50 -38 -110 -131 -240 -246 -354 -312 -121 -71 -297 -112 -547 -128 -153 -10
-192 -9 -289 5 -422 62 -676 294 -764 701 -20 92 -17 382 5 470 96 388 363
594 918 709 145 30 330 45 701 55 174 5 322 12 328 16 9 6 11 46 7 159 -6 177
-17 236 -63 332 -92 194 -280 278 -584 260 -221 -12 -428 -68 -688 -183 -61
-28 -107 -42 -112 -37 -5 5 -48 95 -95 199 -48 105 -93 203 -101 219 -8 16
-14 32 -14 36 0 4 53 32 118 62 207 98 577 192 817 208 140 9 390 3 490 -11z"/>
<path d="M2560 3888 c-226 -11 -428 -28 -485 -39 -277 -55 -429 -133 -513
-266 -80 -129 -97 -327 -41 -479 39 -104 150 -193 279 -225 80 -20 305 -17
405 6 268 59 465 237 537 485 21 74 38 247 38 397 0 121 -4 134 -39 131 -14
-1 -96 -5 -181 -10z"/>
</g>
</svg>
